# xmcd CD database file
#
# Track frame offsets:
#	150
#	31638
#	57017
#	93947
#	129451
#	159026
#	193205
#	224926
#	258267
#
# Disc length: 3803 seconds
#
# Revision: 0
# Processed by: cddbd v1.5.2PL0 Copyright (c) Steve Scherf et al.
# Submitted via: CDex 1.70beta2
#
DISCID=740ed909
DTITLE=小曽根真 Feat. No Name Horses - Jungle
DYEAR=2009
DGENRE=Jazz
TTITLE0=Jungle
TTITLE1=Coconuts Meeting
TTITLE2=No Siesta
TTITLE3=Cave Walk
TTITLE4=Safari
TTITLE5=B and B
TTITLE6=Moon Flower
TTITLE7=La Verdad Con Los Caballos
TTITLE8=Oasis
EXTD=YEAR: 2009
EXTT0=
EXTT1=
EXTT2=
EXTT3=
EXTT4=
EXTT5=
EXTT6=
EXTT7=
EXTT8=
PLAYORDER=
